REM GENRE Flamenco
REM DATE 1973
REM DISCID 6B085A08
REM COMMENT "ExactAudioCopy v0.99pb5"
PERFORMER "Paco de Lucía"
TITLE "Fuente y Caudal"
FILE "01 - Entre Dos Aguas (Rumba).wav" WAVE
  TRACK 01 AUDIO
    TITLE "Entre Dos Aguas (Rumba)"
    PERFORMER "Paco de Lucía"
    ISRC ES5709901833
    INDEX 01 00:00:00
  TRACK 02 AUDIO
    TITLE "Aires Choqueros (Fandangos de Huelva)"
    PERFORMER "Paco de Lucía"
    ISRC ES5709901831
    INDEX 00 05:58:20
FILE "02 - Aires Choqueros (Fandangos de Huelva).wav" WAVE
    INDEX 01 00:00:00
  TRACK 03 AUDIO
    TITLE "Reflejo de Luna (Granaína)"
    PERFORMER "Paco de Lucía"
    ISRC ES5709901837
    INDEX 00 04:12:34
FILE "03 - Reflejo de Luna (Granaína).wav" WAVE
    INDEX 01 00:00:00
  TRACK 04 AUDIO
    TITLE "Solera (Bulería por Soleá)"
    PERFORMER "Paco de Lucía"
    ISRC ES5709901838
    INDEX 00 03:50:02
FILE "04 - Solera (Bulería por Soleá).wav" WAVE
    INDEX 01 00:00:00
  TRACK 05 AUDIO
    TITLE "Fuente y Caudal (Tarantas)"
    PERFORMER "Paco de Lucía"
    ISRC ES5709901834
    INDEX 00 03:41:69
FILE "05 - Fuente y Caudal (Tarantas).wav" WAVE
    INDEX 01 00:00:00
  TRACK 06 AUDIO
    TITLE "Cepa Andalúza (Bulerías)"
    PERFORMER "Paco de Lucía"
    ISRC ES5709901832
    INDEX 00 05:09:74
FILE "06 - Cepa Andalúza (Bulerías).wav" WAVE
    INDEX 01 00:00:00
  TRACK 07 AUDIO
    TITLE "Los Pinares (Tangos)"
    PERFORMER "Paco de Lucía"
    ISRC ES5709901835
    INDEX 00 05:46:07
FILE "07 - Los Pinares (Tangos).wav" WAVE
    INDEX 01 00:00:00
  TRACK 08 AUDIO
    TITLE "Plaza de San Juan (Alegrías)"
    PERFORMER "Paco de Lucía"
    ISRC ES5709901836
    INDEX 00 03:33:73
FILE "08 - Plaza de San Juan (Alegrías).wav" WAVE
    INDEX 01 00:00:00